<svg xmlns="http://www.w3.org/2000/svg" xml:space="preserve" width="50px" height="50px" version="1.0" style="shape-rendering:geometricPrecision; text-rendering:geometricPrecision; image-rendering:optimizeQuality; fill-rule:evenodd; clip-rule:evenodd" viewBox="0 0 542.55 464.13" xmlns:xlink="http://www.w3.org/1999/xlink" xmlns:xodm="http://www.corel.com/coreldraw/odm/2003"> -->
                <g id="Layer_x0020_1">
                 <metadata id="CorelCorpID_0Corel-Layer"></metadata>
                 <g id="_2598857888048">
                  <path class="fil0" d="M121.86 384.66l298.82 0c0,-6.63 -17.08,-82.23 -18.82,-90.33l-19.33 -90.87 -43.45 0 0 23.31c27.04,0 24.55,-1.92 25.95,5.84l27.03 128.74 -241.6 0c0.1,-4.63 2.16,-12.69 3.18,-16.95 7.92,-33.23 14.07,-68.43 21.84,-102.14 0.85,-3.71 1.18,-4.71 1.87,-8.72 1.49,-8.63 -2.37,-6.76 26.1,-6.76l0 -23.31 -43.45 0c-0.31,3.73 -1.44,6.65 -2.22,10.5 -0.77,3.83 -1.47,7.15 -2.44,11.34 -1.84,7.99 -3.28,15.26 -4.78,22.77l-19.43 90.77c-1.86,8.7 -9.28,39.11 -9.28,45.82z"></path>
                  <path class="fil0" d="M271.27 228.89c-2.56,-1.88 -8.31,-11.09 -10.9,-14.54l-20.56 -31.36c-3.5,-5.88 -6.18,-11.06 -9.66,-16.83 -9.4,-15.56 -26.69,-53.42 -26.69,-77.15 0,-34.77 30.64,-65.7 62.52,-65.7 16.64,0 26.98,0.47 41.77,10.15 67.41,44.16 6.37,134.48 -27.36,183.34 -2.07,3.01 -6.94,10.49 -9.11,12.08zm-4.68 -228.89l9.26 0c15.72,0.73 31.18,5.16 43.55,13.34 59.24,39.14 46.8,97.32 18.64,154.1l-9.74 17.81c-3.59,5.9 -6.96,11.51 -10.34,17.21 -6.55,11.01 -14.58,22.65 -22.15,32.95 -5.19,7.06 -19.41,27.14 -24.54,30.57 -4.56,-3.06 -21.62,-26.5 -24.99,-31.18 -8.1,-11.26 -14.39,-21.35 -22.07,-33.03l-20.07 -35.03c-28.72,-56.59 -39.44,-115.6 19.64,-153.82 12.19,-7.88 27.35,-12.19 42.81,-12.91z"></path>
                  <path class="fil0" d="M78.42 223.59c0,5.06 8.59,3.18 18.01,3.18 -2.12,4.41 -3.89,11.11 -5.91,16.34 -9.99,25.83 -19.9,58.71 -30.12,84.33l-11.66 33.91 -48.74 0 0 23.31 62.52 0c3.6,0 7.6,-14.88 9.66,-21.07 11.98,-35.97 28.38,-77.31 40.82,-113.89l16.28 -46.24 -50.86 0 0 20.13z"></path>
                  <path class="fil0" d="M480.03 384.66l62.52 0 0 -23.31 -48.74 0 -11.66 -33.91c-2.11,-5.29 -3.72,-10.67 -5.91,-16.34l-30.12 -84.33c3.57,0 7.13,0.06 10.69,0.09 9.23,0.07 7.33,1.91 7.33,-23.4l-50.86 0 61.01 171.05c1.47,3.82 1.94,10.15 5.75,10.15z"></path>
                  <path class="fil0" d="M260.68 91.13c0,-15.75 21.19,-15.75 21.19,0 0,13.66 -21.19,13.66 -21.19,0zm-23.31 -4.24c0,13.06 1.06,18.64 10.31,27.84 3.09,3.07 5.92,5.43 9.94,7.02 13.53,5.36 26.75,3.35 36.73,-6.49 15.03,-14.81 14.04,-37.39 0.53,-49.85 -13.14,-12.13 -33.19,-11.98 -46.64,-0.5 -4.37,3.73 -10.87,14.22 -10.87,21.98z"></path>
                  <polygon class="fil0" points="101.73,169.55 169.55,169.55 169.55,146.23 101.73,146.23 "></polygon>
                  <polygon class="fil0" points="373,169.55 440.82,169.55 440.82,146.23 373,146.23 "></polygon>
                  <path class="fil0" d="M146.23 460.95c0,2.44 0.74,3.18 3.18,3.18l31.79 0 0 -23.31 -34.97 0 0 20.13z"></path>
                  <path class="fil0" d="M10.6 460.95c0,2.44 0.74,3.18 3.18,3.18l31.79 0 0 -23.31 -34.97 0 0 20.13z"></path>
                  <path class="fil0" d="M78.42 460.95c0,2.44 0.74,3.18 3.18,3.18l31.79 0 0 -23.31 -34.97 0 0 20.13z"></path>
                  <path class="fil0" d="M214.05 460.95c0,2.44 0.74,3.18 3.18,3.18l31.79 0 0 -23.31 -34.97 0 0 20.13z"></path>
                  <path class="fil0" d="M349.69 460.95c0,2.44 0.74,3.18 3.18,3.18l31.79 0 0 -23.31 -34.97 0 0 20.13z"></path>
                  <path class="fil0" d="M417.51 460.95c0,2.44 0.74,3.18 3.18,3.18l31.79 0 0 -23.31 -34.97 0 0 20.13z"></path>
                  <path class="fil0" d="M485.33 460.95c0,2.44 0.74,3.18 3.18,3.18l31.79 0 0 -23.31 -34.97 0 0 20.13z"></path>
                  <path class="fil0" d="M281.87 460.95c0,2.44 0.74,3.18 3.18,3.18l31.79 0 0 -23.31 -34.97 0 0 20.13z"></path>
                 </g>
                </g>
               </svg>