<svg xmlns="http://www.w3.org/2000/svg" xml:space="preserve" width="50px" height="50px" version="1.0" style="shape-rendering:geometricPrecision; text-rendering:geometricPrecision; image-rendering:optimizeQuality; fill-rule:evenodd; clip-rule:evenodd" viewBox="0 0 365.33 348.06" xmlns:xlink="http://www.w3.org/1999/xlink" xmlns:xodm="http://www.corel.com/coreldraw/odm/2003">
                            <g id="Layer_x0020_1">
                            <metadata id="CorelCorpID_0Corel-Layer"></metadata>
                            <g id="_2636808786704">
                            <path class="fil0" d="M188.37 333.08l0 -15.7c2.85,-0.67 7.35,-3.32 10.23,-4.76l20.69 -9.99c3.84,-1.92 6.79,-3.1 10.71,-4.99l123.91 -60.18 0 15.7c-2.86,0.67 -7.35,3.32 -10.23,4.76l-134.62 65.17c-6.8,3.4 -14.02,6.46 -20.69,9.99zm176.95 -106.32l0 30.62c-0.73,4.77 -3.12,4.44 -9.99,7.91l-91.8 44.48c-4.07,2.03 -7.32,3.75 -11.41,5.72 -2.2,1.06 -3.98,1.62 -5.97,2.6 -8.74,4.31 -60.03,29.98 -62.78,29.98 -5.9,0 -39.51,-18.62 -47.91,-22.02 -8.26,-3.34 -14.75,-7.64 -23.15,-11.1l-34.07 -16.59c-4.22,-2.11 -7.27,-3.43 -11.66,-5.47 -4.06,-1.88 -7.38,-3.69 -11.41,-5.71l-34.26 -16.4c-4.07,-2.04 -7.33,-3.67 -11.41,-5.72 -6.45,-3.24 -8.77,-3.17 -9.51,-7.61l0 -30.69c0,-3.1 4.21,-4.31 6.66,-5.47l56.84 -27.35c-3.89,-8.11 6.71,-51.37 20.69,-51.37 16.48,0 17.02,19.34 22.12,29.97 4.53,-1.06 9.41,-4.74 13.56,-5.71 0,-38.29 0,-76.58 0,-114.88 0,-15.16 -2.09,-20.56 4.5,-24.04l38.08 -19.01c25.95,-12.97 13.64,-13.4 59.94,9.75 22.09,11.05 23.17,8.47 23.08,19.73l-0.01 128.44c4.53,1.06 9.41,4.74 13.56,5.71 1.77,-3.69 2.66,-10.38 6.65,-18.32 4.14,-8.25 7.7,-11.64 15.47,-11.64 13.95,0 24.6,43.24 20.69,51.37 4.32,1.01 11.93,5.9 16.51,7.75l40.82 19.83c2.38,1.08 6.18,2.29 6.18,5.24zm-353.91 10.7c11.89,6.29 28.92,13.73 41.38,19.98l82.67 40.06c5.46,2.21 37.84,19.03 41.48,19.88l0 15.7c-14,-7.41 -35.83,-17.2 -51.37,-24.97l-51.99 -25.07c-6.93,-2.81 -13.47,-7.06 -20.59,-10.1l-41.59 -19.77 0 -15.7zm8.56 -9.99l36.87 -17.36c4.33,-2.17 8.3,-4.03 12.37,-6.18 2.14,3.2 6.34,5.41 10.7,6.42 0,12.17 -2.2,23.55 5.71,23.55 7.96,0 5.71,-11.38 5.71,-23.55 12.92,-3.01 17.12,-12.65 17.12,-25.69l11.42 -5c0,11.89 0,23.78 0,35.68 0,21.17 -5.81,13.86 37.34,35.44 30.48,15.24 20.15,15.37 50.42,0.24 3.83,-1.91 33.86,-16.49 35.92,-18.31 2.53,-2.24 1.97,-3.06 1.92,-7.35l-0.02 -45.69c4.36,1.02 7.06,3.98 11.42,5 0,13.08 4.16,22.67 17.12,25.69 0,12.17 -2.2,23.55 5.71,23.55 7.96,0 5.71,-11.38 5.71,-23.55 4.36,-1.02 8.56,-3.23 10.7,-6.42l49.23 24.97 -101.73 48.82c-8.06,3.33 -58.59,29.34 -60.95,29.34 -1.42,0 -35.27,-17.14 -40.19,-19.42l-122.49 -60.17zm168.39 19.98l-0 -181.24c3.82,-0.89 41.38,-21.12 45.67,-22.12l0 180.52 -45.66 22.84zm-57.08 -204.07l45.66 22.84 0 181.23 -45.66 -22.84 -0 -181.23zm142.71 154.12c-3.51,-1.86 -5.41,-5.22 -5.64,-9.36 -0.3,-5.39 5.74,-29.7 11.35,-33.46 5.57,3.73 11.47,27.31 11.31,33.5 -0.04,1.52 -0.83,4.12 -1.57,5.49 -1.13,2.1 -2.08,2.79 -4.03,3.82 0,-7.18 1.57,-14.98 -5.71,-14.98 -7.28,0 -5.71,7.81 -5.71,14.98zm-194.08 0c-8.33,-4.41 -5.28,-14.49 -3.43,-21.99 1.46,-5.91 4.85,-17.95 9.14,-20.83 4.5,3.01 14.54,30.09 9.74,38.99 -1.13,2.1 -2.08,2.79 -4.03,3.82 0,-7.18 1.57,-14.98 -5.71,-14.98 -7.28,0 -5.71,7.81 -5.71,14.98zm146.27 -164.11l0 1.43c-5.92,1.38 -40,20.73 -42.95,20.94 -1.6,0.12 -27.06,-13.14 -32.21,-15.71 -3.04,-1.52 -8.21,-4.54 -11.18,-5.23 0.73,-2.72 1.88,-2.41 4.36,-3.49 7.96,-3.46 34.76,-18.1 38.15,-18.81 1.95,-0.41 19.65,9.14 21.71,10.17l22.12 10.7z"></path>
                            <path class="fil0" d="M194.08 196.79c0,12.08 17.43,0.92 21.17,-0.95 4.22,-2.11 13.08,-4.97 13.08,-10.46 0,-5.06 -4.35,-7.05 -9.66,-4.66l-19.14 9.4c-2.85,1.34 -5.45,2.83 -5.45,6.68z"></path>
                            <path class="fil0" d="M194.08 219.63c0,12.08 17.43,0.92 21.17,-0.95 4.22,-2.11 13.08,-4.97 13.08,-10.46 0,-5.06 -4.35,-7.05 -9.66,-4.66l-19.14 9.4c-2.85,1.34 -5.45,2.83 -5.45,6.68z"></path>
                            <path class="fil0" d="M194.08 173.96c0,12.08 17.43,0.92 21.17,-0.95 4.22,-2.11 13.08,-4.97 13.08,-10.46 0,-10.56 -12.88,-3.21 -17.25,-0.84l-7.63 3.79c-3.99,2.06 -9.37,3.04 -9.37,8.47z"></path>
                            <path class="fil0" d="M194.08 128.3c0,12.08 17.43,0.92 21.17,-0.95 4.22,-2.11 13.08,-4.97 13.08,-10.46 0,-8.89 -9.26,-4.89 -13.54,-2.84 -2.48,1.19 -4.66,2.71 -7.46,3.96 -6.1,2.73 -13.24,5.01 -13.24,10.3z"></path>
                            <path class="fil0" d="M194.08 82.63c0,12.08 17.43,0.92 21.17,-0.95 4.22,-2.11 13.08,-4.97 13.08,-10.46 0,-10.56 -12.88,-3.21 -17.25,-0.84 -1.7,0.92 -1.94,1.14 -3.76,1.95 -1.99,0.89 -2.22,0.98 -3.87,1.83 -3.99,2.06 -9.37,3.04 -9.37,8.47z"></path>
                            <path class="fil0" d="M194.08 105.46c0,12.08 17.43,0.92 21.17,-0.95 4.22,-2.11 13.08,-4.97 13.08,-10.46 0,-10.56 -12.88,-3.21 -17.25,-0.84 -1.7,0.92 -1.94,1.14 -3.76,1.95 -6.1,2.73 -13.24,5.01 -13.24,10.3z"></path>
                            <path class="fil0" d="M194.08 151.13c0,12.08 17.43,0.92 21.17,-0.95 4.22,-2.11 13.08,-4.97 13.08,-10.46 0,-10.56 -12.88,-3.21 -17.25,-0.84 -7.62,4.13 -17,6.34 -17,12.26z"></path>
                            <path class="fil0" d="M137 94.05c0,4.93 6.49,7.38 12.63,10.2 5.11,2.34 21.62,13.29 21.62,1.22 0,-5.39 -6.71,-6.55 -12.71,-10.12 -4.25,-2.53 -21.54,-13.23 -21.54,-1.3z"></path>
                            <path class="fil0" d="M137 71.21c0,4.93 6.49,7.38 12.63,10.2l7.59 3.83c4.36,2.36 14.03,6.3 14.03,-2.61 0,-3.98 -2.38,-4.78 -5.23,-6.19 -8.17,-4.06 -29.02,-18.52 -29.02,-5.23z"></path>
                            <path class="fil0" d="M137 162.54c0,5.35 5.14,6.32 8.91,8.21 7.52,3.78 25.34,15.54 25.34,3.2 0,-5.39 -6.71,-6.55 -12.71,-10.12 -4.25,-2.53 -21.54,-13.24 -21.54,-1.3z"></path>
                            <path class="fil0" d="M137 139.71c0,5.76 9.63,8.45 16.54,12 1.74,0.89 1.93,1.09 3.68,2.03 4.36,2.36 14.03,6.3 14.03,-2.61 0,-4.35 -3.67,-5.56 -8.94,-8.19 -5.02,-2.51 -25.31,-16.22 -25.31,-3.23z"></path>
                            <path class="fil0" d="M137 185.38c0,5.35 5.14,6.32 8.91,8.21l11.31 5.82c4.36,2.36 14.03,6.3 14.03,-2.61 0,-5.39 -6.71,-6.55 -12.71,-10.12 -4.25,-2.53 -21.54,-13.24 -21.54,-1.3z"></path>
                            <path class="fil0" d="M137 208.21c0,5.35 5.14,6.32 8.91,8.21l11.31 5.82c4.36,2.36 14.03,6.3 14.03,-2.61 0,-5.39 -6.71,-6.55 -12.71,-10.12 -4.25,-2.53 -21.54,-13.24 -21.54,-1.3z"></path>
                            <path class="fil0" d="M137 116.88c0,5.76 9.63,8.45 16.54,12 4.48,2.3 17.71,10.26 17.71,-0.58 0,-5.39 -6.71,-6.55 -12.71,-10.12 -4.25,-2.53 -21.54,-13.23 -21.54,-1.3z"></path>
                            <path class="fil0" d="M62.79 273.14c0,6.96 11.29,8.04 11.72,-0.11 0.41,-7.79 -11.72,-8.55 -11.72,0.11z"></path>
                            <path class="fil0" d="M291.12 273.14c0,6.96 11.29,8.04 11.72,-0.11 0.41,-7.79 -11.72,-8.55 -11.72,0.11z"></path>
                            <path class="fil0" d="M119.87 300.26c0,5.67 6.46,8.02 10.1,4.38 3.34,-3.34 1.47,-10.09 -4.39,-10.09 -3.45,0 -5.71,2.26 -5.71,5.71z"></path>
                            <path class="fil0" d="M234.04 300.26c0,5.67 6.46,8.02 10.1,4.38 3.34,-3.34 1.47,-10.09 -4.39,-10.09 -3.45,0 -5.71,2.26 -5.71,5.71z"></path>
                            <path class="fil0" d="M34.25 258.87c0,5.86 6.74,7.74 10.09,4.39 3.35,-3.35 1.48,-10.09 -4.39,-10.09 -3.45,0 -5.71,2.26 -5.71,5.71z"></path>
                            <path class="fil0" d="M319.66 258.87c0,5.86 6.74,7.74 10.09,4.39 3.35,-3.35 1.48,-10.09 -4.39,-10.09 -3.45,0 -5.71,2.26 -5.71,5.71z"></path>
                            <path class="fil0" d="M148.41 314.53c0,3.6 3.54,5.71 5.71,5.71 5.83,0 7.73,-6.6 4.39,-10.09 -3.6,-3.76 -10.09,-1.21 -10.09,4.38z"></path>
                            <path class="fil0" d="M205.5 314.53c0,3.6 3.54,5.71 5.71,5.71 5.83,0 7.73,-6.6 4.39,-10.09 -3.6,-3.76 -10.09,-1.21 -10.09,4.38z"></path>
                            <path class="fil0" d="M91.33 286.7c0,8.09 11.42,6.75 11.42,1.43 0,-3.32 -0.02,-7.13 -5.71,-7.13 -3.45,0 -5.71,2.26 -5.71,5.71z"></path>
                            <path class="fil0" d="M262.58 286.7c0,8.09 11.42,6.75 11.42,1.43 0,-3.32 -0.02,-7.13 -5.71,-7.13 -3.45,0 -5.71,2.26 -5.71,5.71z"></path>
                            </g>
                            </g>
                            </svg>
