 <svg xmlns="http://www.w3.org/2000/svg" xml:space="preserve" width="50px" height="50px" version="1.0" style="shape-rendering:geometricPrecision; text-rendering:geometricPrecision; image-rendering:optimizeQuality; fill-rule:evenodd; clip-rule:evenodd" viewBox="0 0 191.07 179.87" xmlns:xlink="http://www.w3.org/1999/xlink" xmlns:xodm="http://www.corel.com/coreldraw/odm/2003">
                    <g id="Layer_x0020_1">
                     <metadata id="CorelCorpID_0Corel-Layer"></metadata>
                     <g id="_2598912783328">
                      <path class="fil0" d="M97.03 23.14c8.74,0 13.06,-0.57 13.06,9.33 0,6.61 -3.17,11.56 -7.09,14.18 -0.43,-5.22 -10.35,-15.14 -16.79,-15.67 1.1,-1.64 3.08,-3.26 4.57,-4.76 1.88,-1.89 2.56,-3.08 6.25,-3.08zm-35.45 12.69c-0.86,-0.75 -1.65,-1.6 -2.61,-2.24 1.16,-1.73 7.16,-7.51 9.03,-9.26 1.85,-1.73 4.75,-1.19 8.14,-1.19 3.11,0 6.22,0 9.33,0 -1.14,1.7 -2.89,3.05 -4.38,4.57 -3.09,3.16 -2.35,1.51 -6.99,2.34 -7.11,1.27 -8.73,3.77 -12.51,5.77zm-11.2 -20.15c4.61,0 7.74,-9.7 14.93,-9.7l120.17 0 0 28.74c-8.98,0 -16.7,-1.11 -22.86,5.13 -9.8,9.92 -16.06,4.43 -25.13,8.09 -9.37,3.78 -22.24,21.15 -27.77,24.85 -1.32,-0.88 -3.65,-3.27 -4.64,-4.69 -1.98,-2.86 -2.45,-4.1 -2.45,-7.99 0,-9.9 13.06,-11.71 13.06,-25.38 0,-5.25 0.62,-10 -3.63,-13.91 -1.68,-1.54 -4.84,-3.26 -7.94,-3.26l-33.96 0c-5.04,0 -8.79,5.25 -13.34,9.8 -2.02,2.02 -3.77,3.76 -5.78,5.78 -3.79,3.8 -8.45,5.82 -13.57,2.94 -1.34,-0.76 -1.98,-1.7 -3.13,-2.47 2.73,-4.08 10.08,-8.26 10.08,-11.94 0,-1.55 -2.35,-2.85 -4.02,-2.19 -1.36,0.54 -2.78,2.46 -3.91,3.59 -2.58,2.58 -4.86,4.91 -7.47,7.45 -3.2,3.11 -1.49,4.92 2.82,8.58 6.2,5.26 14.16,5.54 20.58,0.65 1.08,-0.82 1.49,-1.39 2.44,-2.03 1.34,0.9 1.29,1.34 2.99,2.24 -2.7,5.11 -5.22,8.03 -5.22,16.05 0,13.8 11.2,25.82 26.49,25.75 1.12,-0 3.1,-0.12 4.12,-0.01 3.05,0.32 4.41,5.61 7.83,5.61l5.22 0c0,8.88 -0.67,8.21 8.21,8.21 0,8.88 -0.67,8.21 8.21,8.21 0,7.13 -0.62,5.91 2.89,9.42 1.1,1.1 2.27,2.89 4.2,2.89l16.05 0c2.66,0 3.36,-2.17 3.36,-4.85l0 -12.69c0,-3.8 -1.45,-4.25 -3.45,-6.25 -1.07,-1.07 -3.96,-4.57 -5.5,-4.57 -2.1,0 -2.99,1.29 -2.99,2.99 0,3.13 5.97,5.78 5.97,7.84l0 11.57 -11.94 0c-0.82,0 -2.15,-1.33 -2.43,-2.05 -0.49,-1.27 -0.19,-3.25 -0.17,-4.68 0.05,-6.35 -2.12,-5.59 -8.22,-5.59 0,-8.39 0.18,-8.21 -8.21,-8.21 0,-12.45 -2.43,-6.21 -9.99,-8.3 -1.99,-0.55 -4.09,-5.51 -8.67,-5.51 -6.62,0 -10.44,1.11 -17.49,-4.15 -13.99,-10.46 -7.85,-36.15 13.01,-36.15 10.19,0 19.41,9.27 19.41,16.79 0,2.15 -5.53,9.78 2.45,19.94 1.42,1.81 6.54,7.67 8.75,7.67 2.24,0 1.66,-0.73 3.36,-1.87 1.73,1.16 5.55,6.34 7.46,6.34 2.1,0 2.99,-1.29 2.99,-2.99 0,-2.59 -4.98,-5.8 -6.34,-7.84 3.66,-2.45 15.85,-17.09 21.01,-19.66 4.21,-2.1 6.76,-1.08 12.15,-1.65 10.92,-1.15 14.72,-7.35 17.79,-9.45 7.39,-5.05 22.93,1.05 22.93,-4.31l0 -35.45c0,-2.22 -1.51,-2.99 -3.73,-2.99l-120.91 0c-8.09,0 -12.11,5.08 -17.28,10.34 -2.93,2.97 0.12,5.33 1.23,5.33z"></path>
                      <path class="fil0" d="M105.61 156.74c1.3,-1.94 5.78,-5.97 7.74,-7.93 3.94,-3.94 5.46,-6.25 11.29,-6.25 3.88,0 5.98,2.74 7.46,3.73 -1.16,1.73 -7.16,7.51 -9.03,9.26 -1.85,1.73 -4.75,1.19 -8.14,1.19 -3.11,0 -6.22,0 -9.33,0zm-35.08 -46.65c0,2.28 0.29,3.36 2.99,3.36 2.59,0 5.8,-4.98 7.84,-6.34 1.32,0.88 3.65,3.27 4.64,4.69 1.98,2.86 2.45,4.1 2.45,7.99 0,9.36 -13.06,12.67 -13.06,24.63 0,5.44 -0.78,10.6 3.63,14.66 1.68,1.54 4.84,3.26 7.94,3.26l33.96 0c5.04,0 8.79,-5.25 13.34,-9.8 4.95,-4.95 10.9,-13.47 19.36,-8.72 1.34,0.76 1.98,1.7 3.13,2.47 -1.07,1.6 -18.8,18.99 -21.74,21.92 -2.26,2.26 -4.97,5.69 -9.24,5.69l-120.17 0 0 -28.74c8.89,0 16.66,1.15 22.86,-5.13 10.81,-10.94 17.39,-3.09 28.86,-9.95 2.06,-1.23 9.48,-7.52 9.48,-9.93 0,-1.32 -1.57,-2.78 -2.66,-2.89 -3.99,-0.37 -6.58,10.36 -18.97,10.36 -16.95,0 -18.62,8.27 -24.64,10.81 -2.62,1.11 -7.09,0.74 -10.83,0.74 -3.23,0 -9.7,-0.83 -9.7,2.24l0 35.45c0,2.22 1.51,2.99 3.73,2.99l120.91 0c7.98,0 11.51,-4.61 15.58,-8.68l21.27 -21.27c1.02,-1 2.49,-2.01 2.2,-3.88 -0.3,-1.92 -10,-13.75 -22.27,-7.6 -1.29,0.65 -1.59,0.8 -2.77,1.7 -1.08,0.82 -1.49,1.39 -2.44,2.03 -2.61,-1.75 -5.66,-5.6 -12.31,-5.6 -8.75,0 -15.25,8.72 -21.92,15.39 -5.21,5.21 -3.9,4.76 -12.78,4.76 -7.4,0 -8.21,-3.96 -8.21,-9.33 0,-3.34 0.73,-6.03 1.85,-8.22 2.72,-5.31 19.5,-15.19 7.27,-31.5 -1.35,-1.8 -6.6,-7.67 -8.75,-7.67 -2.38,0 -3.79,2.48 -6.06,4.76 -0.95,0.95 -4.76,4.11 -4.76,5.32z"></path>
                      <path class="fil0" d="M73.89 48.89l0.75 0c3.86,0 3.86,5.6 0,5.6 -4.2,0 -3.18,-5.6 -0.75,-5.6zm-7.84 1.87c0,3.01 0.22,5.24 2.71,7.37 9.08,7.77 19.68,-5.43 11.77,-12.89 -5.53,-5.22 -14.48,-0.76 -14.48,5.52z"></path>
                      <path class="fil0" d="M17.17 154.12c0,5.54 -1.3,14.18 2.99,14.18 4.26,0 2.99,-8.44 2.99,-13.81 0,-5.55 -5.97,-4.38 -5.97,-0.37z"></path>
                      <path class="fil0" d="M167.93 14.93l0 10.45c0,5.55 5.97,4.38 5.97,0.37 0,-5.54 1.3,-14.18 -2.99,-14.18 -1.47,0 -2.99,1.69 -2.99,3.36z"></path>
                      <path class="fil0" d="M79.86 67.92c0,1.81 1.18,2.99 2.99,2.99 2.06,0 5.28,-3.97 7.37,-6.06 1.05,-1.05 2.51,-2.2 3.24,-3.5 0.99,-1.75 0.06,-4.24 -1.66,-4.24 -3.39,0 -3.14,1.08 -7,4.94 -1.11,1.11 -4.94,4.32 -4.94,5.88z"></path>
                     </g>
                    </g>
                   </svg>