<svg xmlns="http://www.w3.org/2000/svg" xml:space="preserve" width="50px" height="50" version="1.0" style="shape-rendering:geometricPrecision; text-rendering:geometricPrecision; image-rendering:optimizeQuality; fill-rule:evenodd; clip-rule:evenodd" viewBox="0 0 1890.48 1915.24" xmlns:xlink="http://www.w3.org/1999/xlink" xmlns:xodm="http://www.corel.com/coreldraw/odm/2003">
                    <g id="Layer_x0020_1">
                     <metadata id="CorelCorpID_0Corel-Layer"></metadata>
                     <g id="_2636809882480">
                      <path class="fil0" d="M389.85 1542.19c0,-41.52 33.09,-74.61 74.61,-74.61l348.18 0c43.22,0 78.75,23.87 78.75,66.32l0 335.74 -501.54 0 0 -174.09 435.22 0c51.02,0 51.02,-49.74 0,-49.74l-435.22 0 0 -103.62zm-344.04 -136.78l0 -45.59c0,-44.58 42.58,-87.05 87.05,-87.05l124.35 0c48.25,0 87.05,45.47 87.05,95.33l0 501.54 -136.79 0c-28.03,0 -45.59,-25.1 -45.59,-53.88l0 -277.71c46.22,0 74.61,7 74.61,-29.02 0,-34.2 -89.06,-15.07 -122.82,-22.25 -32.81,-6.98 -67.85,-43.08 -67.85,-81.37zm998.94 107.77c16.26,30.72 21.99,24.87 74.61,24.87l0 290.15c0,25.93 -22.99,41.45 -49.74,41.45l-132.64 0 0 -476.67c0,-142.77 101.17,-120.2 207.25,-120.2 116.25,0 128.19,180.35 30.42,212.8 -52.09,17.29 -103.79,-21.74 -129.9,27.61zm-754.39 -290.15c0,-109.19 -13.45,-213.24 44.89,-286.71 24.91,-31.36 78.59,-69.76 133.34,-69.76l348.18 0c64.78,0 131.25,52.81 157.54,111.88 26.97,60.59 16.55,171.49 16.55,257.02 -34.98,2.91 -69.17,42.18 -83.02,70.35 -20.13,40.95 -16.47,77.53 -16.47,136.9 -14.92,-3.98 -30.57,-20.73 -70.46,-20.73l-356.47 0c-32.58,0 -55.04,11.77 -74.61,24.87 0,-69.15 10.2,-143 -51.39,-189.03 -33.54,-25.07 -48.1,-17.87 -48.1,-34.81zm-45.59 -149.22l0 153.37c-85.65,0 -150.41,-12.68 -202.19,38.22 -48.18,47.37 -42.37,81.53 -42.37,140.02 0,49 36.82,94.71 70.33,112.05 13.2,6.84 27.32,14.91 45.73,16.44 0,78.75 0,157.51 0,236.26 0,46.77 -3.1,75.74 16.39,103.82 15.71,22.65 40.63,41.26 78.95,41.26l866.3 0c31.08,0 61.35,-22.35 74.02,-42.04 16.95,-26.32 17.22,-60.63 17.17,-103.04 -0.09,-78.75 0,-157.51 0,-236.26 174.95,-40.76 140.79,-306.73 -16.58,-306.73l-116.06 0c0,-82.76 11.17,-214.39 -24.98,-277.61 -17.31,-30.29 -30.28,-45.31 -54.73,-69.62 -18.3,-18.2 -50.6,-37.47 -77.18,-47.17 -69.37,-25.31 -283.1,-15.96 -369.53,-15.96 -156.81,0 -265.28,101.15 -265.28,256.99z"></path>
                      <path class="fil0" d="M949.42 530.82l812.42 0c0,27.64 -15.31,49.74 -41.45,49.74l-725.37 0c-11.49,0 -26,-7.26 -32.1,-13.49 -8.5,-8.67 -11.66,-21.94 -13.49,-36.24zm501.55 -286c0,-9.71 6.88,-16.58 16.58,-16.58l124.35 0c13.4,0 20.73,15.04 20.73,29.01l0 227.97 -161.65 0 0 -240.41zm-240.41 240.41c-80.8,0 -112.67,13.36 -126.79,-51.44 -26.06,-119.56 52.18,-145.13 52.18,-222.13l0 -49.74 66.32 0c0,155.73 31.09,89.39 51.56,188.85 9.38,45.57 4.57,134.45 -43.27,134.45zm-120.2 -356.47c0,80.21 9.3,83.9 -22.05,139.6 -29.66,52.71 -44.14,107.86 -30.08,173.66 3.74,17.48 11.31,28.13 14.82,43.21l-136.78 0c-14,20.9 -12.44,1.59 -12.44,49.74 0,46.09 41.26,91.19 87.05,91.19l733.66 0c41.58,0 82.9,-41.32 82.9,-82.9 0,-73.61 20.06,-58.03 -149.22,-58.03l0 -223.83c0,-21.25 -6.05,-42.4 -15.7,-54.77 -28.21,-36.15 -107.24,-23.99 -174.97,-23.99 -54.53,0 -66.32,48.71 -66.32,95.33l0 207.25 -116.06 0c4.59,-19.69 20.73,-48.92 20.73,-91.19 0,-96.84 -54.14,-130.61 -57.92,-182.49 -1.82,-24.96 -0.11,-57.05 -0.11,-82.79 -31.27,-20.93 -65.06,-12.43 -128.5,-12.43 -15.22,0 -20.04,6.42 -29.01,12.43z"></path>
                      <path class="fil0" d="M1513.14 1583.64l277.71 0 -21.69 231.15c-3.41,22.38 -17.74,42.41 -44.63,42.41 -209.69,0 -181.71,15.21 -195.52,-115.36 -2.59,-24.58 -5.63,-51.22 -7.95,-79.1 -2.08,-25.13 -7.93,-51.08 -7.93,-79.11zm-74.61 -277.72l4.14 -107.77c43.68,29.25 89.36,90.96 115.89,136.96 28.11,48.75 54.06,126.29 54.06,202.93 -62.32,0 -100.5,-22.95 -135.13,-80.41 -22.22,-36.87 -38.96,-94.36 -38.96,-151.71zm132.64 -41.45l-66.24 -74.69c-14.17,-11.24 -23.23,-22.13 -37.35,-33.12 -13.69,-10.65 -22.91,-22.94 -45.63,-24.83 -19.92,17.31 -16.77,24.77 -21.98,56.78 -17.02,104.58 -10.31,217.46 48.45,306.38 13.23,20.03 25,27.06 35.71,43.05 -21.17,5.65 -22.35,14.4 -18.57,38.87 2.72,17.6 4.95,41.2 5.99,56.61 2.74,40.56 14.99,198.16 29.8,223.05 15.56,26.15 41.24,46.23 82.27,46.23 177.73,0 225.75,21.68 236.41,-136.64 3.85,-57.22 20.58,-165.78 20.58,-215.68 -17.56,-11.76 -4.61,-12.43 -33.16,-12.43 16.1,-24.04 40.01,-40.95 57.5,-87.57 29.09,-77.54 25.4,-106.19 25.4,-186 0,-49.73 -24.98,-66.07 -49.89,-33.31 -66.79,87.81 -173.94,119.83 -173.94,165.95 0,12.74 12.14,16.58 24.87,16.58 8.39,0 24.94,-17.11 38.24,-28.08 24.94,-20.58 64.21,-42.59 95.37,-70.43 8.75,-7.82 10.07,-11.06 19.76,-17.55 0,63.03 -8.91,108.98 -30.34,152.04 -13.72,27.57 -62.48,88.37 -98.15,88.37l-58.03 0c0,-46.6 -6.9,-83.67 -16.53,-120.26 -24.55,-93.23 -62.81,-80.28 -2.84,-209.99 15.09,-32.66 50.13,-79.39 52.54,-88.4l8.29 0c0.23,10.18 16.46,80.24 20.2,129.02 2.22,28.97 -0.09,32.63 25.39,32.63 9.97,0 12.18,-6.72 20.73,-12.43 0,-23.16 -20.59,-289.19 -87.23,-203.29l-55.52 77.12c-16.41,27.2 -49.12,86.53 -52.07,122.02z"></path>
                      <path class="fil0" d="M170.16 327.71c0,-154.35 121.19,-281.86 281.86,-281.86 150.07,0 273.57,119.2 273.57,286 0,278.56 -397.47,380.5 -527.89,109.24 -11.88,-24.71 -27.54,-79.44 -27.54,-113.38zm-45.59 -4.14c0,289.4 355.22,426.23 548.24,233.22 180.57,-180.55 92.57,-455.39 -91.63,-528.17 -87.39,-34.53 -180.57,-42.32 -268.76,1.99 -28.01,14.07 -75.49,44.07 -95.49,66.16 -55.95,61.81 -92.36,137.94 -92.36,226.81z"></path>
                      <path class="fil0" d="M452.02 132.9c32.57,0 79.21,15.24 103.71,33.07 159.34,115.94 70.88,348.27 -107.86,348.27 -55.12,0 -105.19,-28.34 -133.8,-56.87 -116.48,-116.19 -37.12,-324.47 137.95,-324.47zm-8.29 426.93c216.06,0 320.73,-253.05 168.95,-405.22 -66.36,-66.54 -172.42,-87.42 -262.97,-45.27 -49.6,23.09 -94.18,65.09 -115.73,116.39 -21.07,50.17 -27.65,94.85 -15.13,148.61 24.52,105.28 119.47,185.48 224.87,185.48z"></path>
                      <path class="fil0" d="M431.29 203.36c-8.6,36.94 -4.14,85.36 -4.14,124.35 0,29.28 103.63,29.28 103.63,0 0,-33.58 -23.4,-29.01 -58.03,-29.01 0,-56.97 11.54,-115.9 -41.45,-95.33z"></path>
                     </g>
                    </g>
                   </svg>
